<?xml version="1.0" encoding="UTF-8" standalone="no"?>
<!-- Generator: Adobe Illustrator 17.1.0, SVG Export Plug-In . SVG Version: 6.00 Build 0)  -->

<svg
   xmlns:dc="http://purl.org/dc/elements/1.1/"
   xmlns:cc="http://creativecommons.org/ns#"
   xmlns:rdf="http://www.w3.org/1999/02/22-rdf-syntax-ns#"
   xmlns:svg="http://www.w3.org/2000/svg"
   xmlns="http://www.w3.org/2000/svg"
   xmlns:sodipodi="http://sodipodi.sourceforge.net/DTD/sodipodi-0.dtd"
   xmlns:inkscape="http://www.inkscape.org/namespaces/inkscape"
   version="1.1"
   id="Capa_1"
   x="0px"
   y="0px"
   width="1000px"
   height="1000px"
   viewBox="0 0 1000 1000"
   enable-background="new 0 0 1000 1000"
   xml:space="preserve"
   inkscape:version="0.48.4 r9939"
   sodipodi:docname="thumb52.svg"><metadata
   id="metadata11"><rdf:RDF><cc:Work
       rdf:about=""><dc:format>image/svg+xml</dc:format><dc:type
         rdf:resource="http://purl.org/dc/dcmitype/StillImage" /></cc:Work></rdf:RDF></metadata><defs
   id="defs9" /><sodipodi:namedview
   pagecolor="#ffffff"
   bordercolor="#666666"
   borderopacity="1"
   objecttolerance="10"
   gridtolerance="10"
   guidetolerance="10"
   inkscape:pageopacity="0"
   inkscape:pageshadow="2"
   inkscape:window-width="1366"
   inkscape:window-height="705"
   id="namedview7"
   showgrid="false"
   inkscape:zoom="0.236"
   inkscape:cx="-154.66102"
   inkscape:cy="500"
   inkscape:window-x="-8"
   inkscape:window-y="-8"
   inkscape:window-maximized="1"
   inkscape:current-layer="Capa_1" />
<path
   d="M923.8,353.9l-355.3-0.4c0,0,20.6-84.3,24.3-123.8c2.5-27,3.1-53.9-3.1-80.5c-9.2-40-19.5-65-35.9-96  C545,36.8,528,26.6,509.5,26.6h-68.8c-27.7,0-50.1,22.5-50,50.2c0.2,46.3,0.2,108.1-0.8,110.2c-27,56.8-58.3,111.3-93.6,163.3  c-16.1,23.8-33,46.9-52.6,68c-8.6,9.2-13.3,21.4-13.3,33.9v437.2c0,12.9,5,25.4,14,34.7c13.4,13.8,37.4,30.2,76.8,30.2  c124.3-0.5,325.7-1.6,468.9-0.6c17.9,0.1,34.5-9.3,43.5-24.8l126.3-216.2c8.6-15,13.1-32,13.2-49.3l0.7-259.3  C973.8,376.4,951.4,354,923.8,353.9z"
   id="path3"
   style="fill:#607d8b;fill-opacity:1" />
<path
   d="M119.3,425.3H74.5c-27.6,0-50,22.4-50,50v429c0,27.6,22.4,50,50,50h44.7c27.6,0,50-22.4,50-50v-429  C169.3,447.7,146.9,425.3,119.3,425.3z"
   id="path5"
   style="fill:#607d8b;fill-opacity:1" />
</svg>